<svg width="152" height="152" viewBox="0 0 152 152" fill="none" xmlns="http://www.w3.org/2000/svg">
<g clip-path="url(#clip0_63_118)">
<path d="M75.78 151.56C117.632 151.56 151.56 117.632 151.56 75.78C151.56 33.9279 117.632 0 75.78 0C33.9279 0 0 33.9279 0 75.78C0 117.632 33.9279 151.56 75.78 151.56Z" fill="#FF5C00"/>
<path d="M70.4612 49.0932L45.0807 63.7525C43.3942 64.7254 42.1711 66.3285 41.6707 68.2003C41.1703 70.0814 41.4298 72.0736 42.4027 73.7601L49.7324 86.455C50.7054 88.1415 52.3084 89.3646 54.1802 89.865C56.0613 90.3654 58.0536 90.1059 59.74 89.1329L62.9091 87.2982L70.2388 99.9931C70.7206 100.836 71.5268 101.448 72.4627 101.698C73.3986 101.948 74.3993 101.819 75.2426 101.337L81.59 97.6765C82.4333 97.1946 83.0448 96.3885 83.295 95.4526C83.5452 94.5167 83.4155 93.5159 82.9336 92.6727L75.604 79.9778L85.1205 74.4829L108.314 78.0134L79.0047 27.2432L70.4704 49.0932H70.4612ZM107.934 44.3859C111.066 49.8159 110.862 56.4877 107.332 61.6583L92.6725 36.2778C98.8995 35.8516 104.821 38.9929 107.934 44.3859Z" fill="white"/>
<path d="M32.5156 81.0433L23.0176 84.0733L26.0199 92.5335L31.1441 90.9026L34.7951 89.3088L36.5186 93.6177L14.1312 100.753L12.8524 96.7219L22.3504 93.6918L19.8022 85.0926L10.1281 88.1783L8.84937 84.1475L27.1411 78.3189L30.8106 76.7622L32.5248 81.0433H32.5156Z" fill="white"/>
<path d="M44.6822 103.014L32.5804 124.011L32.1634 124.382L28.9758 120.814L31.2368 117.997L32.395 116.07L27.002 109.806L24.982 110.77L22.0168 113.021L18.6624 109.259L19.0793 108.889L37.927 101.049L40.6143 99.0479L44.7007 103.005L44.6822 103.014ZM30.0507 108.379L34.4151 112.882L39.6969 104.339L39.3726 103.978L30.0414 108.388L30.0507 108.379Z" fill="white"/>
<path d="M52.3362 109.76L56.8304 111.789L62.9369 114.3L61.0744 117.895L56.1262 115.338L55.1161 114.884L52.7718 120.092C53.3926 120.045 54.0135 120.027 54.6436 120.045C55.2737 120.054 55.876 120.11 56.4598 120.212C56.6266 120.258 56.8026 120.323 56.9879 120.388C57.1733 120.462 57.3586 120.536 57.5347 120.62C59.7864 121.639 61.2041 122.992 61.7786 124.688C62.3531 126.383 62.14 128.348 61.1393 130.581L59.5269 134.167C59.0451 135.223 58.452 136.15 57.7292 136.938C57.0065 137.725 56.1725 138.337 55.2181 138.772C54.2636 139.208 53.2073 139.467 52.049 139.542C50.8907 139.616 49.6305 139.458 48.2591 139.05L49.056 135.02C49.7602 135.205 50.4737 135.344 51.2058 135.437C51.9378 135.539 52.5957 135.594 53.1795 135.613C53.6891 135.325 54.1524 134.908 54.5602 134.343C54.9772 133.787 55.3478 133.148 55.6721 132.425L57.1918 129.043C58.3779 126.402 57.8126 124.567 55.4961 123.52C54.7733 123.196 54.069 123.02 53.3741 122.992C52.6791 122.964 52.0119 123.048 51.354 123.242L46.971 132.972L43.1533 131.248L51.2984 113.17L50.2513 112.697L45.0992 110.696L47.0174 107.165L52.3455 109.769L52.3362 109.76Z" fill="white"/>
<path d="M72.407 116.014L72.6942 125.716L72.6664 132.434H73.0371L81.5899 115.885L85.7783 115.764L86.4733 139.106L82.3219 139.226L82.0254 129.404L82.0625 123.14H81.6918L73.0927 139.616L68.9414 139.588L68.3761 120.546L67.885 116.478L72.3977 116.014H72.407Z" fill="white"/>
<path d="M99.1312 109.528L113.994 120.601L114.347 120.323L107.11 103.412L111.557 99.8911L127.301 117.21L123.752 120.018L120.851 116.357L112.521 106.73L112.141 107.026L114.263 111.493L119.128 123.669L115.811 126.291L104.932 118.637L101.3 115.598L100.947 115.876L107.601 124.938L111.418 129.766L107.842 132.592L97.4262 116.867L94.7112 113.438L99.122 109.519L99.1312 109.528Z" fill="white"/>
<path d="M118.794 84.5366L121.945 86.603L118.488 92.7929L117.117 95.545L122.76 98.3527L123.881 96.0917L126.309 90.4671L129.497 92.4686L125.651 99.789L131.925 102.912L133.324 100.095L136.409 92.9782L139.745 94.8408L133.092 108.212L115.903 99.6593L112.021 98.1396L118.785 84.5366H118.794Z" fill="white"/>
<path d="M117.191 77.7446L135.121 81.6643L134.464 85.0836L121.352 82.8133L116.765 82.3407L117.2 77.7446H117.191ZM138.068 81.8589L142.47 82.5168L141.608 86.9924L137.466 86.1585L138.068 81.8589Z" fill="white"/>
</g>
<defs>
<clipPath id="clip0_63_118">
<rect width="151.56" height="151.56" fill="white"/>
</clipPath>
</defs>
</svg>
