<svg width="63" height="63" viewBox="0 0 63 63" fill="none" xmlns="http://www.w3.org/2000/svg">
<g clip-path="url(#clip0_67_66)">
<path d="M31.7801 63.0001C49.0224 63.0001 63.0001 49.0224 63.0001 31.7801C63.0001 14.5377 49.0224 0.560059 31.7801 0.560059C14.5377 0.560059 0.560059 14.5377 0.560059 31.7801C0.560059 49.0224 14.5377 63.0001 31.7801 63.0001Z" fill="black"/>
<path d="M31.7801 63.0001C49.0224 63.0001 63.0001 49.0224 63.0001 31.7801C63.0001 14.5377 49.0224 0.560059 31.7801 0.560059C14.5377 0.560059 0.560059 14.5377 0.560059 31.7801C0.560059 49.0224 14.5377 63.0001 31.7801 63.0001Z" fill="black"/>
<path d="M29.5887 20.7855L19.1324 26.8249C18.4376 27.2257 17.9337 27.8862 17.7275 28.6573C17.5214 29.4323 17.6283 30.253 18.0291 30.9478L21.0488 36.1779C21.4496 36.8727 22.1101 37.3766 22.8812 37.5828C23.6562 37.7889 24.477 37.682 25.1718 37.2812L26.4774 36.5253L29.497 41.7554C29.6956 42.1027 30.0277 42.3547 30.4133 42.4578C30.7988 42.5609 31.2111 42.5074 31.5585 42.3089L34.1736 40.801C34.521 40.6024 34.7729 40.2703 34.876 39.8847C34.9791 39.4992 34.9256 39.0869 34.7271 38.7395L31.7074 33.5094L35.628 31.2456L45.1834 32.7001L33.1085 11.7837L29.5925 20.7855H29.5887ZM45.0269 18.8462C46.3172 21.0833 46.2332 23.8319 44.7787 25.9621L38.7394 15.5058C41.3048 15.3302 43.7442 16.6244 45.0269 18.8462Z" fill="white"/>
<path d="M13.9559 33.9483L10.0429 35.1966L11.2797 38.6821L13.3909 38.0102L14.895 37.3535L15.605 39.1287L6.38182 42.0682L5.855 40.4076L9.76799 39.1593L8.71817 35.6166L4.73263 36.8878L4.20581 35.2272L11.7417 32.8259L13.2534 32.1846L13.9597 33.9483H13.9559Z" fill="white"/>
<path d="M18.9682 42.9996L13.9825 51.6502L13.8107 51.8029L12.4975 50.3332L13.429 49.1726L13.9062 48.3786L11.6843 45.7979L10.8521 46.1949L9.63049 47.1226L8.24854 45.5727L8.42033 45.42L16.1852 42.1903L17.2923 41.3657L18.9759 42.9958L18.9682 42.9996ZM12.9403 45.21L14.7384 47.0653L16.9144 43.5455L16.7808 43.3967L12.9365 45.2138L12.9403 45.21Z" fill="white"/>
<path d="M22.1216 45.7789L23.9731 46.6149L26.4889 47.6495L25.7215 49.1307L23.683 48.077L23.2668 47.89L22.301 50.0355C22.5568 50.0164 22.8126 50.0087 23.0722 50.0164C23.3317 50.0202 23.5799 50.0431 23.8204 50.0851C23.8891 50.1042 23.9616 50.1309 24.038 50.1576C24.1143 50.1882 24.1907 50.2187 24.2632 50.2531C25.1909 50.673 25.775 51.2304 26.0117 51.929C26.2484 52.6276 26.1606 53.4369 25.7483 54.3569L25.084 55.8343C24.8855 56.2695 24.6412 56.6513 24.3434 56.9758C24.0456 57.3003 23.7021 57.5522 23.3088 57.7317C22.9156 57.9111 22.4804 58.018 22.0032 58.0485C21.526 58.0791 21.0069 58.0142 20.4419 57.8462L20.7702 56.1855C21.0603 56.2619 21.3543 56.3192 21.6558 56.3573C21.9574 56.3993 22.2285 56.4222 22.469 56.4299C22.6789 56.3115 22.8698 56.1397 23.0378 55.9069C23.2096 55.6778 23.3623 55.4144 23.4959 55.1166L24.122 53.7232C24.6106 52.6352 24.3778 51.8793 23.4234 51.448C23.1256 51.3143 22.8355 51.2418 22.5491 51.2304C22.2628 51.2189 21.988 51.2533 21.7169 51.3334L19.9112 55.3419L18.3384 54.6318L21.694 47.1837L21.2626 46.989L19.1401 46.1645L19.9303 44.71L22.1254 45.7827L22.1216 45.7789Z" fill="white"/>
<path d="M30.3906 48.3555L30.5089 52.3525L30.4974 55.1202H30.6502L34.1738 48.3021L35.8993 48.2524L36.1856 57.8689L34.4753 57.9185L34.3532 53.8719L34.3685 51.2912H34.2158L30.6731 58.0788L28.9628 58.0674L28.7299 50.2223L28.5276 48.5464L30.3867 48.3555H30.3906Z" fill="white"/>
<path d="M41.4003 45.6836L47.5237 50.2456L47.6688 50.1311L44.6872 43.164L46.5197 41.7134L53.0057 48.8484L51.5436 50.0051L50.3487 48.4972L46.9167 44.5307L46.7602 44.6529L47.6344 46.493L49.6386 51.5092L48.2719 52.5896L43.7901 49.4363L42.2936 48.1841L42.1486 48.2987L44.8896 52.0322L46.4624 54.0212L44.9888 55.1855L40.6979 48.7071L39.5793 47.2946L41.3965 45.6798L41.4003 45.6836Z" fill="white"/>
<path d="M49.5011 35.3877L50.7991 36.239L49.3751 38.7891L48.8101 39.923L51.135 41.0797L51.5969 40.1482L52.5971 37.8309L53.9104 38.6555L52.3261 41.6714L54.9106 42.9579L55.487 41.7974L56.7583 38.8655L58.1326 39.6328L55.3916 45.1416L48.31 41.618L46.7104 40.9919L49.4973 35.3877H49.5011Z" fill="white"/>
<path d="M48.8406 32.5894L56.2276 34.2042L55.9566 35.6129L50.5547 34.6776L48.665 34.4829L48.8445 32.5894H48.8406ZM57.4416 34.2844L59.2549 34.5554L58.8999 36.3993L57.1935 36.0557L57.4416 34.2844Z" fill="white"/>
</g>
<defs>
<clipPath id="clip0_67_66">
<rect width="62.44" height="62.44" fill="white" transform="translate(0.560059 0.560059)"/>
</clipPath>
</defs>
</svg>
