<svg width="86" height="86" viewBox="0 0 86 86" fill="none" xmlns="http://www.w3.org/2000/svg">
<g clip-path="url(#clip0_63_134)">
<path d="M81.8681 58.3018C84.9923 59.5952 86.6552 63.005 85.765 66.2636L81.7337 81.0448C80.9275 83.9675 78.2736 85.9999 75.2501 85.9999C33.6946 85.9999 0.000119784 52.3053 0.0001216 10.7499C0.000121732 7.72644 2.03254 5.07253 4.95519 4.26628L19.7364 0.235034C22.995 -0.6552 26.4048 1.00769 27.6982 4.13191L34.4169 20.2569C35.5591 22.9948 34.7696 26.1694 32.4685 28.0339L24.1876 34.8198C29.781 46.6448 39.3552 56.219 51.1802 61.8124L57.9493 53.5315C59.8306 51.2304 62.9884 50.4409 65.7263 51.5831L81.8513 58.3018L81.8681 58.3018Z" fill="black"/>
</g>
<defs>
<clipPath id="clip0_63_134">
<rect width="86" height="86" fill="white" transform="translate(86) rotate(90)"/>
</clipPath>
</defs>
</svg>
